<svg id="eUvOk7dlIua1" xmlns="http://www.w3.org/2000/svg" xmlns:xlink="http://www.w3.org/1999/xlink" viewBox="0 0 35 35" shape-rendering="geometricPrecision" text-rendering="geometricPrecision"><style><![CDATA[#eUvOk7dlIua2_tr {animation: eUvOk7dlIua2_tr__tr 4s linear infinite normal forwards}@keyframes eUvOk7dlIua2_tr__tr { 0% {transform: translate(17.450001px,17.500000px) rotate(0deg)} 100% {transform: translate(17.450001px,17.500000px) rotate(180deg)}}]]></style><g id="eUvOk7dlIua2_tr" transform="translate(17.450001,17.500000) rotate(0)"><g id="eUvOk7dlIua2" transform="translate(-17.450001,-17.500000)"><path id="eUvOk7dlIua3" d="M4.600000,15.200000L4.500000,15.900000L0,15.200000L0.100000,14.500000L4.600000,15.200000Z" fill="rgb(11,191,140)" stroke="none" stroke-width="1"/><path id="eUvOk7dlIua4" d="M5.200000,11C5.100000,11.200000,4.900000,11.400000,4.800000,11.600000C4.600000,11.800000,4.400000,11.900000,4.200000,12C4,12,3.800000,12,3.600000,12C3.400000,12,3.100000,11.900000,2.800000,11.800000C2.600000,11.700000,2.300000,11.500000,2.200000,11.300000C2,11.100000,1.900000,10.900000,1.800000,10.700000C1.700000,10.500000,1.700000,10.300000,1.700000,10C1.700000,9.800000,1.800000,9.500000,1.900000,9.300000C2,9.200000,2.100000,9.100000,2.200000,9C2.300000,8.900000,2.300000,8.800000,2.400000,8.700000C2.500000,8.600000,2.500000,8.500000,2.600000,8.500000C2.700000,8.500000,2.700000,8.400000,2.800000,8.300000L3.600000,8.700000L3.600000,8.800000C3.500000,8.800000,3.500000,8.900000,3.400000,8.900000C3.200000,8.900000,3.200000,9,3.100000,9C3,9.100000,2.900000,9.100000,2.800000,9.200000C2.800000,9.300000,2.700000,9.400000,2.600000,9.500000C2.600000,9.600000,2.500000,9.700000,2.500000,9.800000C2.500000,9.900000,2.500000,10,2.500000,10.200000C2.500000,10.300000,2.600000,10.400000,2.700000,10.600000C2.800000,10.800000,3,10.800000,3.100000,10.900000C3.400000,11,3.600000,11,3.800000,11.100000C4,11.100000,4.100000,11.100000,4.200000,11C4.300000,11,4.400000,10.900000,4.500000,10.800000C4.600000,10.700000,4.700000,10.600000,4.700000,10.500000C4.700000,10.400000,4.800000,10.300000,4.800000,10.200000C4.800000,10.100000,4.800000,10,4.800000,9.900000C4.800000,9.800000,4.800000,9.700000,4.800000,9.600000C4.800000,9.500000,4.800000,9.400000,4.800000,9.400000L4.800000,9.300000L5.500000,9.700000C5.500000,9.800000,5.500000,9.900000,5.500000,10C5.500000,10.100000,5.500000,10.200000,5.500000,10.300000C5.500000,10.400000,5.500000,10.500000,5.400000,10.600000C5.400000,10.700000,5.300000,10.800000,5.200000,11Z" fill="rgb(11,191,140)" stroke="none" stroke-width="1"/><path id="eUvOk7dlIua5" d="M6.900000,5.700000C7.400000,6.100000,7.600000,6.500000,7.600000,7C7.600000,7.500000,7.500000,7.900000,7.100000,8.300000C6.700000,8.700000,6.300000,8.900000,5.800000,8.900000C5.300000,8.900000,5,8.800000,4.500000,8.400000C4.100000,8,3.900000,7.600000,3.900000,7.200000C3.900000,6.700000,4,6.300000,4.400000,5.900000C4.800000,5.500000,5.200000,5.300000,5.600000,5.200000C6.100000,5.200000,6.500000,5.300000,6.900000,5.700000ZM6.800000,7.200000C6.800000,7.100000,6.700000,6.900000,6.600000,6.800000C6.600000,6.700000,6.500000,6.500000,6.300000,6.400000C6.200000,6.300000,6,6.200000,5.900000,6.100000C5.700000,6,5.600000,6,5.500000,6C5.300000,6,5.200000,6,5.100000,6.100000C5,6.100000,4.900000,6.200000,4.900000,6.300000C4.800000,6.400000,4.700000,6.500000,4.700000,6.600000C4.700000,6.700000,4.700000,6.800000,4.700000,6.900000C4.700000,7,4.800000,7.100000,4.800000,7.300000C4.900000,7.400000,5,7.600000,5.200000,7.700000C5.300000,7.900000,5.500000,8,5.600000,8C5.700000,8.100000,5.900000,8.100000,6,8.100000C6.100000,8.100000,6.200000,8.100000,6.300000,8C6.400000,8,6.500000,7.900000,6.600000,7.800000C6.700000,7.700000,6.700000,7.600000,6.800000,7.500000C6.800000,7.400000,6.800000,7.300000,6.800000,7.200000Z" fill="rgb(11,191,140)" stroke="none" stroke-width="1"/><path id="eUvOk7dlIua6" d="M9.700000,3C9.800000,3.100000,9.800000,3.300000,9.900000,3.400000C10,3.500000,9.900000,3.700000,9.900000,3.800000C9.900000,4,9.800000,4.200000,9.700000,4.300000C9.600000,4.500000,9.500000,4.700000,9.300000,4.800000L8.800000,5.100000L9.400000,6.100000L8.700000,6.600000L6.700000,3.700000L8,2.800000C8.200000,2.700000,8.400000,2.600000,8.500000,2.500000C8.600000,2.400000,8.800000,2.400000,8.900000,2.400000C9.100000,2.400000,9.200000,2.400000,9.400000,2.500000C9.500000,2.700000,9.600000,2.800000,9.700000,3ZM9,3.500000C8.900000,3.400000,8.800000,3.400000,8.800000,3.400000C8.700000,3.400000,8.600000,3.400000,8.600000,3.400000C8.500000,3.400000,8.400000,3.500000,8.300000,3.500000C8.200000,3.500000,8.100000,3.500000,8,3.600000L7.800000,3.700000L8.400000,4.600000L8.600000,4.500000C8.700000,4.400000,8.800000,4.300000,8.900000,4.300000C9,4.100000,9.100000,4.100000,9.100000,4C9.100000,3.900000,9.100000,3.900000,9.100000,3.800000C9.100000,3.700000,9,3.600000,9,3.500000Z" fill="rgb(11,191,140)" stroke="none" stroke-width="1"/><path id="eUvOk7dlIua7" d="M13.200000,0.500000L12.700000,3L13.200000,4.300000L12.300000,4.600000L11.900000,3.400000L9.900000,1.800000L10.900000,1.400000L12.100000,2.400000L12.300000,0.900000L13.200000,0.500000Z" fill="rgb(11,191,140)" stroke="none" stroke-width="1"/><path id="eUvOk7dlIua8" d="M19.500000,3.500000L18.600000,3.500000L18.400000,2.800000L17.100000,2.800000L16.800000,3.500000L15.900000,3.500000L17.200000,0L18.200000,0L19.500000,3.500000ZM18.100000,2.200000L17.700000,0.900000L17.200000,2.200000L18.100000,2.200000Z" fill="rgb(11,191,140)" stroke="none" stroke-width="1"/><path id="eUvOk7dlIua9" d="M23.300000,2.800000C23.200000,3.100000,23.100000,3.300000,22.900000,3.500000C22.700000,3.700000,22.500000,3.800000,22.200000,3.900000C22,4,21.800000,4.100000,21.600000,4.100000C21.400000,4.100000,21.200000,4,20.900000,4L19.800000,3.700000L20.700000,0.500000L21.900000,0.800000C22.200000,0.900000,22.400000,1,22.600000,1.100000C22.800000,1.200000,22.900000,1.300000,23,1.400000C23.200000,1.600000,23.300000,1.800000,23.400000,2.100000C23.500000,2.400000,23.300000,2.500000,23.300000,2.800000ZM22.400000,2.600000C22.500000,2.400000,22.500000,2.200000,22.400000,2C22.400000,1.800000,22.300000,1.700000,22.100000,1.500000C22,1.400000,21.900000,1.400000,21.900000,1.300000C21.800000,1.300000,21.700000,1.200000,21.500000,1.200000L21.300000,1.100000L20.800000,3.100000L21,3.300000C21.200000,3.400000,21.300000,3.400000,21.400000,3.400000C21.500000,3.400000,21.600000,3.400000,21.700000,3.400000C21.900000,3.400000,22,3.300000,22.100000,3.100000C22.300000,3,22.300000,2.800000,22.400000,2.600000Z" fill="rgb(11,191,140)" stroke="none" stroke-width="1"/><path id="eUvOk7dlIua10" d="M26.800000,4.800000C26.600000,5.100000,26.400000,5.300000,26.200000,5.400000C26,5.500000,25.700000,5.600000,25.500000,5.600000C25.300000,5.600000,25.100000,5.600000,24.900000,5.500000C24.700000,5.400000,24.500000,5.300000,24.300000,5.200000L23.300000,4.600000L25,1.700000L26,2.300000C26.200000,2.400000,26.400000,2.600000,26.600000,2.700000C26.700000,2.800000,26.900000,3,26.900000,3.100000C27,3.400000,27.100000,3.700000,27.100000,4C27.100000,4.200000,27,4.500000,26.800000,4.800000ZM26,4.300000C26.100000,4.100000,26.200000,3.900000,26.200000,3.800000C26.200000,3.600000,26.200000,3.500000,26.100000,3.300000C26,3.200000,26,3.100000,25.900000,3.100000C25.800000,3,25.700000,3,25.600000,2.900000L25.400000,2.800000L24.400000,4.600000L24.600000,4.700000C24.800000,4.800000,24.900000,4.900000,25,4.900000C25.100000,4.900000,25.200000,4.900000,25.300000,5C25.500000,5,25.600000,5,25.800000,4.900000C25.800000,4.700000,25.900000,4.500000,26,4.300000Z" fill="rgb(11,191,140)" stroke="none" stroke-width="1"/><path id="eUvOk7dlIua11" d="M28.600000,8.800000L27.800000,8.100000L28,6.600000L27.700000,6.300000L26.800000,7.200000L26.200000,6.600000L28.500000,4.200000L29.500000,5.200000C29.600000,5.300000,29.800000,5.500000,29.800000,5.600000C29.900000,5.700000,29.900000,5.800000,30,6C30,6.100000,30,6.300000,30,6.400000C30,6.500000,29.900000,6.700000,29.800000,6.800000C29.600000,7,29.400000,7.100000,29.300000,7.100000C29.100000,7.100000,28.900000,7.100000,28.700000,7L28.600000,8.800000ZM29.300000,6.200000C29.400000,6.100000,29.400000,6.100000,29.400000,6C29.400000,5.900000,29.400000,5.900000,29.400000,5.800000C29.400000,5.700000,29.300000,5.700000,29.300000,5.600000C29.200000,5.500000,29.200000,5.500000,29.100000,5.400000L28.900000,5.200000L28.300000,5.800000L28.400000,6C28.500000,6.100000,28.600000,6.200000,28.700000,6.200000C28.800000,6.300000,28.900000,6.300000,28.900000,6.300000C29,6.300000,29,6.300000,29.100000,6.300000C29.100000,6.300000,29.200000,6.300000,29.300000,6.200000Z" fill="rgb(11,191,140)" stroke="none" stroke-width="1"/><path id="eUvOk7dlIua12" d="M30,11L28.700000,9L31.500000,7.200000L32.800000,9.200000L32.300000,9.500000L31.500000,8.200000L31,8.500000L31.800000,9.700000L31.300000,10L30.500000,8.800000L29.800000,9.200000L30.600000,10.500000L30,11Z" fill="rgb(11,191,140)" stroke="none" stroke-width="1"/><path id="eUvOk7dlIua13" d="M32.100000,13.700000C31.800000,13.800000,31.500000,13.800000,31.200000,13.600000C30.900000,13.400000,30.700000,13.100000,30.500000,12.600000C30.400000,12.300000,30.300000,12.100000,30.300000,11.900000C30.300000,11.700000,30.300000,11.500000,30.300000,11.300000L31.100000,11L31.100000,11.100000C31,11.300000,31,11.500000,31,11.800000C31,12,31,12.200000,31.100000,12.400000C31.100000,12.400000,31.100000,12.500000,31.200000,12.600000C31.200000,12.700000,31.300000,12.700000,31.300000,12.800000C31.300000,12.900000,31.400000,12.900000,31.500000,12.900000C31.600000,12.900000,31.600000,12.900000,31.700000,12.900000C31.800000,12.900000,31.800000,12.800000,31.800000,12.700000C31.800000,12.600000,31.800000,12.500000,31.800000,12.400000C31.800000,12.300000,31.800000,12.100000,31.700000,12C31.700000,11.900000,31.700000,11.700000,31.700000,11.600000C31.700000,11.300000,31.700000,11.100000,31.800000,10.900000C31.900000,10.700000,32.100000,10.600000,32.300000,10.500000C32.600000,10.400000,32.900000,10.400000,33.200000,10.600000C33.500000,10.800000,33.700000,11.100000,33.800000,11.500000C34,11.800000,34,12,34,12.200000C34,12.400000,34,12.600000,34,12.800000L33.300000,13.100000L33.300000,13C33.400000,12.800000,33.400000,12.700000,33.400000,12.400000C33.400000,12.200000,33.400000,12,33.300000,11.800000C33.300000,11.700000,33.200000,11.700000,33.200000,11.600000C33.200000,11.500000,33.100000,11.500000,33.100000,11.400000C33.100000,11.400000,33,11.300000,33,11.300000C33,11.300000,32.900000,11.300000,32.800000,11.300000C32.700000,11.300000,32.700000,11.400000,32.600000,11.500000C32.600000,11.600000,32.600000,11.700000,32.600000,11.900000C32.600000,12,32.600000,12.100000,32.700000,12.300000C32.800000,12.500000,32.700000,12.500000,32.700000,12.700000C32.700000,13,32.700000,13.200000,32.600000,13.300000C32.500000,13.500000,32.400000,13.600000,32.100000,13.700000Z" fill="rgb(11,191,140)" stroke="none" stroke-width="1"/><path id="eUvOk7dlIua14" d="M32.600000,17C32.300000,17,32,16.900000,31.800000,16.700000C31.600000,16.500000,31.400000,16.100000,31.300000,15.600000C31.300000,15.300000,31.300000,15.100000,31.300000,14.900000C31.300000,14.700000,31.400000,14.500000,31.400000,14.300000L32.200000,14.200000L32.200000,14.300000C32.100000,14.500000,32,14.700000,32,14.900000C32,15.100000,31.900000,15.300000,32,15.500000C32,15.600000,32,15.600000,32,15.700000C32,15.800000,32,15.900000,32.100000,15.900000C32.100000,16,32.200000,16,32.200000,16C32.200000,16,32.300000,16,32.400000,16C32.500000,16,32.500000,16,32.600000,15.900000C32.700000,15.800000,32.700000,15.700000,32.700000,15.600000C32.700000,15.500000,32.700000,15.300000,32.700000,15.200000C32.700000,15.100000,32.700000,14.900000,32.700000,14.800000C32.800000,14.500000,32.800000,14.300000,33,14.200000C33.100000,14.100000,33.300000,14,33.600000,13.900000C33.900000,13.900000,34.200000,14,34.400000,14.200000C34.600000,14.400000,34.800000,14.800000,34.800000,15.200000C34.800000,15.400000,34.800000,15.600000,34.800000,15.900000C34.800000,16.200000,34.800000,16.300000,34.700000,16.500000L34,16.700000L34,16.600000C34.100000,16.500000,34.200000,16.300000,34.200000,16.100000C34.200000,15.900000,34.300000,15.700000,34.200000,15.500000C34.200000,15.400000,34.200000,15.400000,34.200000,15.300000C34.200000,15.200000,34.200000,15.200000,34.100000,15.100000C34.100000,15,34,15,34,15C33.900000,15,33.900000,15,33.800000,15C33.700000,15,33.700000,15.100000,33.600000,15.100000C33.600000,15.200000,33.500000,15.300000,33.500000,15.500000C33.500000,15.600000,33.500000,15.700000,33.500000,15.900000C33.500000,16.100000,33.500000,16.100000,33.500000,16.300000C33.500000,16.600000,33.400000,16.800000,33.200000,16.900000C33,16.800000,32.900000,16.900000,32.600000,17Z" fill="rgb(11,191,140)" stroke="none" stroke-width="1"/><path id="eUvOk7dlIua15" d="M30.300000,20.200000L30.400000,19.500000L34.900000,20.300000L34.900000,21L30.300000,20.200000Z" fill="rgb(11,191,140)" stroke="none" stroke-width="1"/><path id="eUvOk7dlIua16" d="M29.700000,24.400000C29.800000,24.200000,30,24,30.100000,23.800000C30.300000,23.600000,30.500000,23.500000,30.700000,23.500000C30.900000,23.500000,31.100000,23.400000,31.400000,23.400000C31.600000,23.400000,31.900000,23.500000,32.200000,23.700000C32.400000,23.800000,32.600000,24,32.800000,24.200000C33,24.400000,33.100000,24.600000,33.100000,24.800000C33.200000,25,33.200000,25.200000,33.100000,25.500000C33.100000,25.700000,33,26,32.900000,26.200000C32.800000,26.300000,32.800000,26.400000,32.700000,26.500000C32.600000,26.600000,32.600000,26.700000,32.500000,26.800000C32.400000,26.900000,32.300000,26.900000,32.300000,27C32.100000,27,32.100000,27,32,27.100000L31.300000,26.700000L31.300000,26.600000C31.400000,26.600000,31.400000,26.600000,31.500000,26.500000C31.600000,26.500000,31.700000,26.400000,31.700000,26.400000C31.800000,26.300000,31.900000,26.300000,31.900000,26.200000C31.900000,26.100000,32,26,32.100000,25.900000C32.200000,25.800000,32.200000,25.700000,32.200000,25.600000C32.200000,25.500000,32.200000,25.400000,32.200000,25.200000C32.200000,25.100000,32.100000,25,32,24.800000C31.900000,24.600000,31.800000,24.600000,31.600000,24.500000C31.400000,24.400000,31.200000,24.300000,31.100000,24.300000C30.900000,24.300000,30.800000,24.300000,30.700000,24.300000C30.600000,24.300000,30.500000,24.400000,30.400000,24.500000C30.300000,24.600000,30.200000,24.700000,30.200000,24.800000C30.100000,24.900000,30.100000,25,30.100000,25.100000C30.100000,25.200000,30.100000,25.300000,30.100000,25.400000C30.100000,25.500000,30.100000,25.600000,30.100000,25.700000C30.100000,25.800000,30.100000,25.900000,30.100000,25.900000L30.100000,26L29.400000,25.600000C29.400000,25.500000,29.400000,25.400000,29.400000,25.300000C29.400000,25.200000,29.400000,25.100000,29.400000,25C29.400000,24.900000,29.500000,24.800000,29.500000,24.700000C29.500000,24.700000,29.600000,24.500000,29.700000,24.400000Z" fill="rgb(11,191,140)" stroke="none" stroke-width="1"/><path id="eUvOk7dlIua17" d="M27.900000,29.400000C27.500000,29,27.300000,28.600000,27.300000,28.200000C27.300000,27.800000,27.400000,27.300000,27.800000,27C28.200000,26.600000,28.600000,26.400000,29,26.400000C29.400000,26.400000,29.900000,26.600000,30.200000,26.900000C30.600000,27.300000,30.800000,27.700000,30.800000,28.100000C30.800000,28.500000,30.700000,28.900000,30.300000,29.300000C29.900000,29.700000,29.500000,29.900000,29.100000,29.900000C28.700000,29.900000,28.300000,29.700000,27.900000,29.400000ZM28,28C28,28.100000,28.100000,28.300000,28.100000,28.400000C28.200000,28.500000,28.300000,28.600000,28.400000,28.800000C28.500000,28.900000,28.700000,29,28.800000,29.100000C28.900000,29.200000,29.100000,29.200000,29.200000,29.200000C29.300000,29.200000,29.400000,29.200000,29.500000,29.100000C29.600000,29.100000,29.700000,29,29.800000,28.900000C29.900000,28.800000,29.900000,28.700000,30,28.600000C30,28.500000,30,28.400000,30,28.300000C30,28.200000,29.900000,28.100000,29.900000,27.900000C29.800000,27.800000,29.700000,27.600000,29.600000,27.500000C29.500000,27.400000,29.300000,27.300000,29.200000,27.200000C29.100000,27.100000,28.900000,27.100000,28.800000,27.100000C28.700000,27.100000,28.600000,27.100000,28.500000,27.200000C28.400000,27.200000,28.300000,27.300000,28.200000,27.400000C28.100000,27.500000,28.100000,27.600000,28,27.700000C28,27.700000,28,27.900000,28,28Z" fill="rgb(11,191,140)" stroke="none" stroke-width="1"/><path id="eUvOk7dlIua18" d="M25.200000,31.900000C25.100000,31.800000,25.100000,31.600000,25,31.500000C25,31.400000,25,31.200000,25,31.100000C25,30.900000,25.100000,30.800000,25.200000,30.600000C25.300000,30.500000,25.500000,30.300000,25.700000,30.200000L26.100000,29.900000L25.500000,29L26.200000,28.500000L28,31.300000L26.800000,32.100000C26.600000,32.200000,26.500000,32.300000,26.300000,32.300000C26.200000,32.300000,26,32.400000,25.900000,32.400000C25.700000,32.400000,25.600000,32.400000,25.500000,32.300000C25.400000,32.200000,25.300000,32.100000,25.200000,31.900000ZM25.900000,31.400000C26,31.500000,26,31.500000,26.100000,31.600000C26.200000,31.600000,26.300000,31.600000,26.300000,31.600000C26.400000,31.600000,26.500000,31.500000,26.600000,31.500000C26.700000,31.500000,26.800000,31.400000,26.900000,31.300000L27,31.200000L26.500000,30.400000L26.300000,30.500000C26.200000,30.600000,26.100000,30.700000,26,30.700000C25.900000,30.700000,25.900000,30.800000,25.900000,30.900000C25.900000,31,25.900000,31,25.900000,31.100000C25.900000,31.300000,25.900000,31.400000,25.900000,31.400000Z" fill="rgb(11,191,140)" stroke="none" stroke-width="1"/><path id="eUvOk7dlIua19" d="M22,34.400000L22.400000,32.100000L22,30.800000L22.800000,30.500000L23.200000,31.700000L25.100000,33.200000L24.200000,33.500000L23.100000,32.500000L22.900000,34L22,34.400000Z" fill="rgb(11,191,140)" stroke="none" stroke-width="1"/><path id="eUvOk7dlIua20" d="M15.400000,31.500000L16.300000,31.500000L16.500000,32.200000L17.800000,32.200000L18.100000,31.500000L19,31.500000L17.700000,35L16.700000,35L15.400000,31.500000ZM16.800000,32.900000L17.200000,34.200000L17.700000,33L16.800000,32.900000Z" fill="rgb(11,191,140)" stroke="none" stroke-width="1"/><path id="eUvOk7dlIua21" d="M11.600000,32.100000C11.700000,31.800000,11.800000,31.600000,12,31.400000C12.200000,31.200000,12.400000,31.100000,12.700000,31C12.900000,30.900000,13.100000,30.900000,13.300000,30.900000C13.500000,30.900000,13.700000,31,14,31L15.100000,31.300000L14.200000,34.500000L13,34.200000C12.700000,34.100000,12.500000,34,12.300000,33.900000C12.100000,33.800000,12,33.700000,11.900000,33.600000C11.700000,33.400000,11.600000,33.200000,11.500000,32.900000C11.500000,32.700000,11.600000,32.400000,11.600000,32.100000ZM12.500000,32.400000C12.400000,32.600000,12.400000,32.800000,12.500000,33C12.500000,33.200000,12.600000,33.300000,12.800000,33.500000C12.900000,33.600000,13,33.600000,13,33.700000C13,33.800000,13.200000,33.800000,13.400000,33.800000L13.600000,33.900000L14.200000,31.900000L14,31.800000C13.800000,31.700000,13.700000,31.700000,13.600000,31.700000C13.500000,31.700000,13.400000,31.700000,13.300000,31.700000C13.100000,31.700000,13,31.800000,12.900000,32C12.600000,32,12.600000,32.200000,12.500000,32.400000Z" fill="rgb(11,191,140)" stroke="none" stroke-width="1"/><path id="eUvOk7dlIua22" d="M8.100000,30.200000C8.300000,29.900000,8.500000,29.700000,8.700000,29.600000C8.900000,29.500000,9.200000,29.400000,9.500000,29.400000C9.700000,29.400000,9.900000,29.400000,10.100000,29.500000C10.300000,29.600000,10.500000,29.700000,10.700000,29.800000L11.700000,30.400000L10,33.200000L9,32.600000C8.800000,32.500000,8.600000,32.300000,8.400000,32.200000C8.200000,32,8.100000,31.900000,8,31.700000C7.900000,31.500000,7.800000,31.200000,7.800000,30.900000C7.800000,30.600000,8,30.400000,8.100000,30.200000ZM8.900000,30.600000C8.800000,30.800000,8.700000,31,8.700000,31.100000C8.700000,31.300000,8.700000,31.400000,8.800000,31.600000C8.900000,31.800000,9,31.800000,9,31.900000C9.100000,32,9.200000,32,9.300000,32.100000L9.500000,32.200000L10.600000,30.400000L10.400000,30.300000C10.200000,30.200000,10.100000,30.100000,10,30.100000C9.900000,30.100000,9.800000,30,9.700000,30C9.500000,30,9.400000,30,9.200000,30.100000C9,30.200000,9,30.400000,8.900000,30.600000Z" fill="rgb(11,191,140)" stroke="none" stroke-width="1"/><path id="eUvOk7dlIua23" d="M6.300000,26.100000L7,26.800000L6.800000,28.300000L7.100000,28.600000L8,27.800000L8.600000,28.400000L6.200000,30.800000L5.200000,29.800000C5.100000,29.700000,4.900000,29.500000,4.900000,29.400000C4.800000,29.300000,4.800000,29.200000,4.700000,29C4.700000,28.900000,4.700000,28.700000,4.700000,28.600000C4.700000,28.500000,4.800000,28.300000,4.900000,28.200000C5.100000,28,5.300000,27.900000,5.400000,27.900000C5.600000,27.900000,5.800000,27.900000,6,28L6.300000,26.100000ZM5.700000,28.700000C5.600000,28.800000,5.600000,28.800000,5.600000,28.900000C5.600000,29,5.600000,29,5.600000,29.100000C5.600000,29.200000,5.700000,29.200000,5.700000,29.300000C5.700000,29.400000,5.800000,29.400000,5.900000,29.500000L6.100000,29.700000L6.700000,29.100000L6.500000,28.900000C6.400000,28.800000,6.300000,28.700000,6.200000,28.700000C6.100000,28.700000,6,28.600000,6,28.600000C5.900000,28.600000,5.900000,28.600000,5.800000,28.600000C5.700000,28.600000,5.700000,28.700000,5.700000,28.700000Z" fill="rgb(11,191,140)" stroke="none" stroke-width="1"/><path id="eUvOk7dlIua24" d="M5,23.900000L6.300000,25.900000L3.500000,27.700000L2.200000,25.700000L2.700000,25.400000L3.500000,26.700000L4,26.300000L3.200000,25.100000L3.700000,24.800000L4.600000,26L5.300000,25.600000L4.500000,24.300000L5,23.900000Z" fill="rgb(11,191,140)" stroke="none" stroke-width="1"/><path id="eUvOk7dlIua25" d="M2.900000,21.200000C3.200000,21.100000,3.500000,21.100000,3.800000,21.300000C4.100000,21.500000,4.300000,21.800000,4.500000,22.300000C4.600000,22.600000,4.700000,22.800000,4.700000,23C4.700000,23.200000,4.700000,23.400000,4.700000,23.600000L3.900000,23.900000L3.900000,23.800000C4,23.600000,4,23.400000,4,23.100000C4,22.900000,4,22.700000,3.900000,22.500000C3.900000,22.500000,3.900000,22.400000,3.800000,22.300000C3.800000,22.200000,3.700000,22.200000,3.700000,22.100000C3.700000,22,3.600000,22,3.600000,22C3.600000,22,3.500000,22,3.400000,22C3.300000,22,3.300000,22.100000,3.300000,22.200000C3.300000,22.300000,3.300000,22.400000,3.300000,22.500000C3.300000,22.600000,3.300000,22.800000,3.400000,22.900000C3.400000,23,3.400000,23.200000,3.400000,23.300000C3.400000,23.600000,3.400000,23.800000,3.300000,24C3.200000,24.200000,3,24.300000,2.800000,24.400000C2.500000,24.500000,2.200000,24.500000,1.900000,24.300000C1.600000,24.100000,1.400000,23.800000,1.300000,23.400000C1,23.100000,1,22.900000,0.900000,22.600000C0.900000,22.400000,0.900000,22.200000,0.900000,22L1.600000,21.700000L1.600000,21.800000C1.500000,22,1.500000,22.100000,1.500000,22.400000C1.500000,22.600000,1.500000,22.800000,1.600000,23C1.600000,23.100000,1.700000,23.100000,1.700000,23.200000C1.700000,23.300000,1.800000,23.300000,1.800000,23.400000C1.800000,23.400000,1.900000,23.500000,1.900000,23.500000C2,23.500000,2,23.500000,2.100000,23.500000C2.200000,23.500000,2.200000,23.400000,2.300000,23.300000C2.400000,23.200000,2.300000,23.100000,2.300000,22.900000C2.300000,22.800000,2.300000,22.700000,2.300000,22.500000C2.300000,22.300000,2.300000,22.300000,2.300000,22.100000C2.300000,21.800000,2.300000,21.600000,2.400000,21.500000C2.500000,21.400000,2.600000,21.300000,2.900000,21.200000Z" fill="rgb(11,191,140)" stroke="none" stroke-width="1"/><path id="eUvOk7dlIua26" d="M2.400000,17.900000C2.700000,17.900000,3,18,3.200000,18.200000C3.400000,18.500000,3.600000,18.800000,3.600000,19.300000C3.600000,19.600000,3.600000,19.800000,3.600000,20C3.600000,20.200000,3.500000,20.400000,3.500000,20.600000L2.700000,20.700000L2.700000,20.600000C2.900000,20.500000,3,20.300000,3,20C3,19.800000,3.100000,19.600000,3,19.400000C3,19.300000,3,19.300000,3,19.200000C3,19.100000,3,19,3,19C3,18.900000,2.900000,18.900000,2.900000,18.900000C2.900000,18.900000,2.800000,18.800000,2.700000,18.900000C2.600000,18.900000,2.600000,18.900000,2.500000,19C2.500000,19.100000,2.400000,19.200000,2.400000,19.300000C2.400000,19.400000,2.400000,19.600000,2.400000,19.700000C2.400000,19.800000,2.400000,20,2.300000,20.100000C2.200000,20.400000,2.100000,20.600000,2,20.700000C1.900000,20.800000,1.700000,20.900000,1.400000,21C1.100000,21,0.800000,20.900000,0.600000,20.700000C0.400000,20.400000,0.200000,20.100000,0.200000,19.700000C0.200000,19.500000,0.200000,19.300000,0.200000,19C0.200000,18.800000,0.200000,18.600000,0.300000,18.400000L1.100000,18.300000L1.100000,18.400000C1,18.500000,0.900000,18.700000,0.900000,18.900000C0.900000,19.100000,0.800000,19.300000,0.900000,19.500000C0.900000,19.600000,0.900000,19.600000,0.900000,19.700000C0.900000,19.800000,0.900000,19.800000,1,19.900000C1,19.900000,1,20,1.100000,20C1.200000,20,1.200000,20,1.300000,20C1.400000,20,1.500000,19.900000,1.500000,19.900000C1.500000,19.800000,1.600000,19.700000,1.600000,19.500000C1.600000,19.400000,1.600000,19.300000,1.600000,19.100000C1.600000,18.900000,1.600000,18.900000,1.700000,18.700000C1.800000,18.400000,1.800000,18.200000,2,18.100000C2.200000,18,2.200000,18,2.400000,17.900000Z" fill="rgb(11,191,140)" stroke="none" stroke-width="1"/></g></g></svg>