<svg xmlns="http://www.w3.org/2000/svg" xmlns:xlink="http://www.w3.org/1999/xlink" width="773" height="455" viewBox="0 0 773 455">
  <defs>
    <linearGradient id="linear-gradient" x1="0.5" x2="0.5" y2="1" gradientUnits="objectBoundingBox">
      <stop offset="0" stop-color="#0bbf8c"/>
      <stop offset="0.464" stop-color="#0aac7e" stop-opacity="0.8"/>
      <stop offset="1" stop-color="#066046" stop-opacity="0"/>
    </linearGradient>
  </defs>
  <rect id="Rectangle_388" data-name="Rectangle 388" width="456" height="446" rx="20" transform="translate(317)" opacity="0.11" fill="url(#linear-gradient)"/>
  <g id="Group_411" data-name="Group 411" transform="translate(-922 -263)">
    <rect id="Rectangle_390" data-name="Rectangle 390" width="221" height="295" rx="20" transform="translate(1032 397)"/>
    <rect id="Rectangle_393" data-name="Rectangle 393" width="221" height="295" rx="20" transform="translate(1032 397)" opacity="0.14" fill="url(#linear-gradient)"/>
  </g>
  <g id="Group_410" data-name="Group 410" transform="translate(-922 -263)">
    <rect id="Rectangle_391" data-name="Rectangle 391" width="125" height="232" rx="20" transform="translate(922 486)"/>
    <rect id="Rectangle_392" data-name="Rectangle 392" width="125" height="232" rx="20" transform="translate(922 486)" opacity="0.17" fill="url(#linear-gradient)"/>
  </g>
  <g id="Group_412" data-name="Group 412" transform="translate(-458.06 -253.484)">
    <path id="Path_341" data-name="Path 341" d="M1059.572,378.5v69.853H750.283L702.72,378.5Z" transform="translate(118.488 13.79)" fill="#0bbf8c"/>
    <path id="Path_342" data-name="Path 342" d="M1178.06,511.357V699.484H886.012l-41.34-60.708L735.8,478.876l-.174.27-29.608,43.468L633.145,629.631H778.9l47.563,69.853H501.06l47.564-69.853,115.13-169.075,29.608-43.468.175-.254,42.086-61.8,42.245,62.058,64.2,94.269,47.563,69.853,32.974,48.42h176.077V581.21H949.848l-47.564-69.853Z" fill="#0bbf8c"/>
  </g>
</svg>
