<svg cache-id="9a44a9eaa3bd45a4a62f6338e3532771" id="edcW1uHKpUP1" xmlns="http://www.w3.org/2000/svg" xmlns:xlink="http://www.w3.org/1999/xlink" viewBox="0 0 773 455" shape-rendering="geometricPrecision" text-rendering="geometricPrecision"><style><![CDATA[#edcW1uHKpUP2_to {animation: edcW1uHKpUP2_to__to 3000ms linear 1 normal forwards}@keyframes edcW1uHKpUP2_to__to { 0% {transform: translate(317px,223px)} 66.666667% {transform: translate(317px,223px);animation-timing-function: cubic-bezier(0,0,0.58,1)} 100% {transform: translate(317px,50.775px)}} #edcW1uHKpUP2 {animation: edcW1uHKpUP2_c_o 3000ms linear 1 normal forwards}@keyframes edcW1uHKpUP2_c_o { 0% {opacity: 0} 66.666667% {opacity: 0;animation-timing-function: cubic-bezier(0,0,0.58,1)} 100% {opacity: 0.11}} #edcW1uHKpUP3_to {animation: edcW1uHKpUP3_to__to 3000ms linear 1 normal forwards}@keyframes edcW1uHKpUP3_to__to { 0% {transform: translate(-922px,-89.5px)} 33.333333% {transform: translate(-922px,-89.5px);animation-timing-function: cubic-bezier(0,0,0.58,1)} 66.666667% {transform: translate(-919.223813px,-246px)} 100% {transform: translate(-919.223813px,-246px)}} #edcW1uHKpUP3 {animation: edcW1uHKpUP3_c_o 3000ms linear 1 normal forwards}@keyframes edcW1uHKpUP3_c_o { 0% {opacity: 0} 33.333333% {opacity: 0;animation-timing-function: cubic-bezier(0,0,0.58,1)} 66.666667% {opacity: 1} 100% {opacity: 1}} #edcW1uHKpUP6_to {animation: edcW1uHKpUP6_to__to 3000ms linear 1 normal forwards}@keyframes edcW1uHKpUP6_to__to { 0% {transform: translate(-922px,-226.093555px);animation-timing-function: cubic-bezier(0,0,0.58,1)} 33.333333% {transform: translate(-922px,-272px)} 100% {transform: translate(-922px,-272px)}} #edcW1uHKpUP6 {animation: edcW1uHKpUP6_c_o 3000ms linear 1 normal forwards}@keyframes edcW1uHKpUP6_c_o { 0% {opacity: 0;animation-timing-function: cubic-bezier(0,0,0.58,1)} 33.333333% {opacity: 1} 100% {opacity: 1}}]]></style><defs><linearGradient id="edcW1uHKpUP2-fill" x1="0.5" y1="0" x2="0.5" y2="1" spreadMethod="pad" gradientUnits="objectBoundingBox"><stop id="edcW1uHKpUP2-fill-0" offset="0%" stop-color="rgb(11,191,140)"/><stop id="edcW1uHKpUP2-fill-1" offset="46.4%" stop-color="rgba(10,172,126,0.8)"/><stop id="edcW1uHKpUP2-fill-2" offset="100%" stop-color="rgba(6,96,70,0)"/></linearGradient><linearGradient id="edcW1uHKpUP5-fill" x1="0.5" y1="0" x2="0.5" y2="1" spreadMethod="pad" gradientUnits="objectBoundingBox"><stop id="edcW1uHKpUP5-fill-0" offset="0%" stop-color="rgb(11,191,140)"/><stop id="edcW1uHKpUP5-fill-1" offset="46.4%" stop-color="rgba(10,172,126,0.8)"/><stop id="edcW1uHKpUP5-fill-2" offset="100%" stop-color="rgba(6,96,70,0)"/></linearGradient><linearGradient id="edcW1uHKpUP8-fill" x1="0.5" y1="0" x2="0.5" y2="1" spreadMethod="pad" gradientUnits="objectBoundingBox"><stop id="edcW1uHKpUP8-fill-0" offset="0%" stop-color="rgb(11,191,140)"/><stop id="edcW1uHKpUP8-fill-1" offset="46.4%" stop-color="rgba(10,172,126,0.8)"/><stop id="edcW1uHKpUP8-fill-2" offset="100%" stop-color="rgba(6,96,70,0)"/></linearGradient></defs><g id="edcW1uHKpUP2_to" transform="translate(317,223)"><rect id="edcW1uHKpUP2" width="456" height="446" rx="20" ry="20" transform="translate(0,0)" opacity="0" fill="url(#edcW1uHKpUP2-fill)" stroke="none" stroke-width="1" stroke-miterlimit="1"/></g><g id="edcW1uHKpUP3_to" transform="translate(-922,-89.5)"><g id="edcW1uHKpUP3" transform="translate(0,0)" opacity="0"><rect id="edcW1uHKpUP4" width="221" height="295" rx="20" ry="20" transform="matrix(1 0 0 1 1032 397)" fill="rgb(0,0,0)" stroke="none" stroke-width="1" stroke-miterlimit="1"/><rect id="edcW1uHKpUP5" width="221" height="295" rx="20" ry="20" transform="matrix(1 0 0 1 1032 397)" opacity="0.14" fill="url(#edcW1uHKpUP5-fill)" stroke="none" stroke-width="1" stroke-miterlimit="1"/></g></g><g id="edcW1uHKpUP6_to" transform="translate(-922,-226.093555)"><g id="edcW1uHKpUP6" transform="translate(0,0)" opacity="0"><rect id="edcW1uHKpUP7" width="125" height="232" rx="20" ry="20" transform="matrix(1 0 0 1 922 486)" fill="rgb(0,0,0)" stroke="none" stroke-width="1" stroke-miterlimit="1"/><rect id="edcW1uHKpUP8" width="125" height="232" rx="20" ry="20" transform="matrix(1 0 0 1 922 486)" opacity="0.17" fill="url(#edcW1uHKpUP8-fill)" stroke="none" stroke-width="1" stroke-miterlimit="1"/></g></g><g id="edcW1uHKpUP9" transform="matrix(1 0 0 1 -458.06 -253.484)"><path id="edcW1uHKpUP10" d="M1059.572,378.5L1059.572,448.353L750.283,448.353L702.72,378.5Z" transform="matrix(1 0 0 1 118.488 13.79)" fill="rgb(11,191,140)" stroke="none" stroke-width="1" stroke-miterlimit="1"/><path id="edcW1uHKpUP11" d="M1178.06,511.357L1178.06,699.484L886.012,699.484L844.672,638.776L735.8,478.876L735.626,479.146L706.018,522.614L633.145,629.631L778.9,629.631L826.463,699.484L501.06,699.484L548.624,629.631L663.754,460.556L693.362,417.088L693.537,416.834L735.623,355.034L777.868,417.092L842.068,511.361L889.631,581.214L922.605,629.634L1098.682,629.634L1098.682,581.21L949.848,581.21L902.284,511.357Z" fill="rgb(11,191,140)" stroke="none" stroke-width="1" stroke-miterlimit="1"/></g></svg>