<svg xmlns="http://www.w3.org/2000/svg" width="14" height="16" viewBox="0 0 14 16">
    <path id="Path_417" data-name="Path 417" d="M4,1.5H3a2,2,0,0,0-2,2V14a2,2,0,0,0,2,2H13a2,2,0,0,0,2-2V3.5a2,2,0,0,0-2-2H12v1h1a1,1,0,0,1,1,1V14a1,1,0,0,1-1,1H3a1,1,0,0,1-1-1V3.5a1,1,0,0,1,1-1H4Z" fill="#0bbf8c"/>
    <path id="Path_418" data-name="Path 418" d="M9.5,1a.5.5,0,0,1,.5.5v1a.5.5,0,0,1-.5.5h-3A.5.5,0,0,1,6,2.5v-1A.5.5,0,0,1,6.5,1Zm-3-1A1.5,1.5,0,0,0,5,1.5v1A1.5,1.5,0,0,0,6.5,4h3A1.5,1.5,0,0,0,11,2.5v-1A1.5,1.5,0,0,0,9.5,0Z" fill="#0bbf8c"/>
    <path id="Path_419" data-name="Path 419" d="M-810.377,732.049l2.651,2.8,4.837-4.9" transform="translate(813.633 -723.899)" fill="none" stroke="#0bbf8c" stroke-linecap="round" stroke-linejoin="round" stroke-width="1.1"/>
</svg>
