<svg xmlns="http://www.w3.org/2000/svg" xmlns:xlink="http://www.w3.org/1999/xlink" width="59" height="70" viewBox="20 0 55 70">
  <defs>
    <filter id="Rectangle_85" x="34.894" y="14.119" width="38.832" height="45.297" filterUnits="userSpaceOnUse">
      <feOffset dy="3" input="SourceAlpha"/>
      <feGaussianBlur stdDeviation="3" result="blur"/>
      <feFlood flood-opacity="0.161"/>
      <feComposite operator="in" in2="blur"/>
      <feComposite in="SourceGraphic"/>
    </filter>
  </defs>
  <g id="Group_220" data-name="Group 220" transform="translate(-539.17 -2567.459)">
    <g id="Group_186" data-name="Group 186" transform="translate(0 -51)">
      <path id="Polygon_3" data-name="Polygon 3" d="M28.629,17.817a12,12,0,0,1,20.742,0L67.5,48.963A12,12,0,0,1,57.13,67H20.87A12,12,0,0,1,10.5,48.963Z" transform="translate(625.063 2618.459) rotate(90)" fill="#520339"/>
      <rect id="Rectangle_339" data-name="Rectangle 339" width="62" height="12.893" transform="translate(552.063 2626.459) rotate(90)" fill="none"/>
    </g>
    <rect id="Rectangle_182" data-name="Rectangle 182" width="38.791" height="30.171" rx="2" transform="translate(561.514 2591.169)" fill="#fff"/>
    <ellipse id="Ellipse_85" data-name="Ellipse 85" cx="3.233" cy="3.592" rx="3.233" ry="3.592" transform="translate(589.529 2596.198)" fill="#fff"/>
    <rect id="Rectangle_86" data-name="Rectangle 86" width="13.649" height="2.873" rx="1.437" transform="translate(585.938 2612.001)" fill="#fff"/>
    <g id="Group_146" data-name="Group 146" transform="translate(565.22 2599.79)">
      <rect id="Rectangle_84" data-name="Rectangle 84" width="14.479" height="13.649" rx="2" transform="translate(0 0)" fill="#ffd6e7"/>
    </g>
    <path id="Path_129" data-name="Path 129" d="M37.063,0H1.785C.811,0-.158.487.022,1.761v4.4H37.063A1.762,1.762,0,0,0,38.827,4.4V1.761A1.762,1.762,0,0,0,37.063,0Z" transform="translate(561.514 2590.918)" fill="#f759ab"/>
    <g id="Group_151" data-name="Group 151" transform="translate(583.064 2587.578)">
      <g transform="matrix(1, 0, 0, 1, -43.89, -20.12)" filter="url(#Rectangle_85)">
        <rect id="Rectangle_85-2" data-name="Rectangle 85" width="20.832" height="27.297" rx="2" transform="translate(43.89 20.12)" fill="#f759ab"/>
      </g>
      <path id="Icon_material-person-outline" data-name="Icon material-person-outline" d="M11.859,7.391A1.538,1.538,0,1,0,13.4,8.929a1.538,1.538,0,0,0-1.538-1.538m0,6.591c-2.175,0-4.467,1.069-4.467,1.538v.806h8.934V15.52c0-.469-2.292-1.538-4.467-1.538m0-7.982A2.929,2.929,0,1,1,8.929,8.929,2.928,2.928,0,0,1,11.859,6Zm0,6.591c1.955,0,5.859.981,5.859,2.929v2.2H6v-2.2C6,13.572,9.9,12.591,11.859,12.591Z" transform="translate(-1.442 -1.706)" fill="#fefefe"/>
      <rect id="Rectangle_180" data-name="Rectangle 180" width="11.494" height="1.437" rx="0.718" transform="translate(4.781 18.508)" fill="#fff"/>
      <rect id="Rectangle_181" data-name="Rectangle 181" width="8.62" height="1.359" rx="0.679" transform="translate(7.654 21.645)" fill="#fff"/>
    </g>
  </g>
</svg>