<svg xmlns="http://www.w3.org/2000/svg" xmlns:xlink="http://www.w3.org/1999/xlink" width="59" height="70" viewBox="20 0 55 70">
  <defs>
    <filter id="Rectangle_332" x="36.19" y="15.972" width="37" height="35" filterUnits="userSpaceOnUse">
      <feOffset dy="3" input="SourceAlpha"/>
      <feGaussianBlur stdDeviation="3" result="blur"/>
      <feFlood flood-opacity="0.161"/>
      <feComposite operator="in" in2="blur"/>
      <feComposite in="SourceGraphic"/>
    </filter>
  </defs>
  <g id="Group_207" data-name="Group 207" transform="translate(-537.81 -2728.028)">
    <g id="Group_187" data-name="Group 187" transform="translate(-1.36 109.569)">
      <path id="Polygon_3" data-name="Polygon 3" d="M28.629,17.817a12,12,0,0,1,20.742,0L67.5,48.963A12,12,0,0,1,57.13,67H20.87A12,12,0,0,1,10.5,48.963Z" transform="translate(625.063 2618.459) rotate(90)" fill="#002329"/>
      <rect id="Rectangle_339" data-name="Rectangle 339" width="62" height="12.893" transform="translate(552.063 2626.459) rotate(90)" fill="none"/>
    </g>
    <g id="Group_190" data-name="Group 190">
      <rect id="Rectangle_321" data-name="Rectangle 321" width="37.651" height="29.368" rx="2" transform="translate(561.514 2752.688)" fill="#fff"/>
      <path id="Path_131" data-name="Path 131" d="M1.716,0H36.037c.948,0,1.89.479,1.716,1.731V6.059H0V1.731A1.724,1.724,0,0,1,1.716,0Z" transform="translate(561.514 2752.486)" fill="#5cdbd3"/>
      <g id="Group_206" data-name="Group 206" transform="translate(0.593)">
        <rect id="Rectangle_323" data-name="Rectangle 323" width="9.036" height="1.776" rx="0.888" transform="translate(570.404 2763.219)" fill="#ffd666"/>
        <rect id="Rectangle_325" data-name="Rectangle 325" width="9.036" height="1.776" rx="0.888" transform="translate(564.797 2767.025)" fill="#adc6ff"/>
        <rect id="Rectangle_324" data-name="Rectangle 324" width="4.518" height="1.776" rx="0.888" transform="translate(564.797 2763.219)" fill="#b5f5ec"/>
        <rect id="Rectangle_326" data-name="Rectangle 326" width="7.53" height="1.776" rx="0.888" transform="translate(564.797 2774.638)" fill="#ffffb8"/>
        <rect id="Rectangle_328" data-name="Rectangle 328" width="4.518" height="1.776" rx="0.888" transform="translate(573.969 2774.638)" fill="#ffd591"/>
        <rect id="Rectangle_329" data-name="Rectangle 329" width="4.518" height="1.776" rx="0.888" transform="translate(575.228 2767.025)" fill="#b5f5ec"/>
        <rect id="Rectangle_327" data-name="Rectangle 327" width="12.391" height="1.776" rx="0.888" transform="translate(564.797 2770.832)" fill="#ffadd2"/>
      </g>
      <g transform="matrix(1, 0, 0, 1, 537.81, 2728.03)" filter="url(#Rectangle_332)">
        <rect id="Rectangle_332-2" data-name="Rectangle 332" width="19" height="17" rx="3" transform="translate(45.19 21.97)" fill="#36cfc9"/>
      </g>
      <g id="Group_154" data-name="Group 154" transform="translate(586.915 2753.106)">
        <rect id="Rectangle_318" data-name="Rectangle 318" width="5.507" height="2.295" rx="1" transform="translate(7.182 7.387)" fill="#f6f6f6"/>
        <g id="Group_153" data-name="Group 153" transform="translate(0 0)">
          <rect id="Rectangle_319" data-name="Rectangle 319" width="6.715" height="2.137" rx="1" transform="translate(1.511 0) rotate(45)" fill="#f6f6f6"/>
          <rect id="Rectangle_320" data-name="Rectangle 320" width="6.715" height="2.137" rx="1" transform="translate(0 8.106) rotate(-45)" fill="#f6f6f6"/>
        </g>
      </g>
    </g>
  </g>
</svg>
