<svg id="Group_355" data-name="Group 355" xmlns="http://www.w3.org/2000/svg" width="110.217" height="78.328" viewBox="0 0 110.217 78.328">
  <path id="Path_360" data-name="Path 360" d="M821.084,425.251a1.474,1.474,0,0,1-1.477,1.428l-53.913-.152a1.48,1.48,0,0,1-1.347-2.089,1.453,1.453,0,0,1,1.351-.866h0l53.913.16a1.474,1.474,0,0,1,1.469,1.52Z" transform="translate(-740.903 -409.606)" fill="#0bbf8c"/>
  <path id="Path_361" data-name="Path 361" d="M805.173,423.337a1.474,1.474,0,0,1,1.579,1.47V467.35a1.478,1.478,0,0,1-1.478,1.478h0l-83.83-.19h-2.551l-.072,0c-3.379-.222-9.817-2.377-9.817-8.937,0-6.617,6.469-8.365,9.889-8.365a12.747,12.747,0,0,1,6.832,2.094V398.9c-.042-.646-.557-5.447-6.832-5.447-6.355,0-6.9,4.953-6.933,5.456v50.51a1.505,1.505,0,0,1-1.168,1.488A1.481,1.481,0,0,1,709,449.464v-50.6a.5.5,0,0,1,0-.08c.156-2.867,2.428-8.285,9.885-8.285s9.67,5.43,9.788,8.306v58.752a1.478,1.478,0,0,1-2.842.57c-1.6-3.855-6.862-3.842-6.933-3.838-.3,0-6.946.1-6.946,5.409,0,5.274,6.334,5.928,6.988,5.983h2.5l82.352.186v-41.06a1.474,1.474,0,0,1,1.369-1.47Z" transform="translate(-709 -390.5)" fill="#0bbf8c"/>
  <g id="Group_334" data-name="Group 334" transform="translate(26.18 24.491)">
    <path id="Path_363" data-name="Path 363" d="M820.379,494.315h-47.9A1.478,1.478,0,0,1,771,492.837V449.978a1.478,1.478,0,0,1,2.463-1.1l47.9,42.859a1.478,1.478,0,0,1-.986,2.579Zm-46.423-2.956h42.555l-42.555-38.076Z" transform="translate(-771 -448.501)" fill="#0bbf8c"/>
  </g>
  <path id="Path_364" data-name="Path 364" d="M908.794,407.881l-14.99,14.99-16.366,16.362a1.473,1.473,0,0,1-1.043.431.994.994,0,0,1-.156-.008l-9.188-.958a1.475,1.475,0,0,1-1.318-1.317l-.933-8.918a1.471,1.471,0,0,1,.426-1.2l19.922-19.922a1.476,1.476,0,0,1,2.09,0,1.491,1.491,0,0,1,.38,1.431,1.451,1.451,0,0,1-.38.659l-19.424,19.424.735,7.026,7.3.764,29.811-29.811-7.913-7.913-4.446,4.446,3.188,3.188a1.483,1.483,0,0,1,0,2.09,1.436,1.436,0,0,1-.57.355,1.473,1.473,0,0,1-1.478-.317.341.341,0,0,1-.042-.038l-4.231-4.231a1.476,1.476,0,0,1,0-2.09l6.536-6.537a1.515,1.515,0,0,1,2.09,0l10,10A1.483,1.483,0,0,1,908.794,407.881Z" transform="translate(-799.008 -393.314)" fill="#0bbf8c"/>
</svg>
